<?xml version="1.0" encoding="UTF-8"?>
<svg id="Layer_1" xmlns="http://www.w3.org/2000/svg" version="1.1" viewBox="0 0 1249.64 284.9">
  <!-- Generator: Adobe Illustrator 30.2.1, SVG Export Plug-In . SVG Version: 2.1.1 Build 1)  -->
  <defs>
    <style>
      .st0 {
        fill: #ec1c24;
      }
    </style>
  </defs>
  <g>
    <g>
      <path d="M14.96,142.37c.13-68.98,56.03-125.04,125.67-124.48,68.06.55,123.77,55.68,123.49,125.15-.28,68.72-55.89,124.29-125.14,123.98-69.03-.31-123.96-56.17-124.01-124.64ZM139.64,26.11c-63.9-.09-115.72,51.51-116.44,114.99-.73,64.15,50.74,117.38,115.75,117.7,64.7.31,116.76-51.75,116.96-116.01.2-64.46-52-116.68-116.26-116.68Z"/>
      <path class="st0" d="M97.21,195.94c-1.65.87-1.72-.62-1.89-1.46-.3-1.54-1.49-1.98-2.79-2.94.21,2.27.38,4.16.57,6.26-1.64,0-3,.25-4.7-.99-2.91-2.13-3.68-4.99-4.32-8.12-.31-1.52-.61-3.04-.95-4.73-.5.45-.87.79-1.44,1.31-.38-.9-.68-1.64-.98-2.35-.34.16-.7.34-1.17.57-.05.62-.11,1.36-.16,2-1.08-.74-2.07-1.41-3.33-2.27.87-.11,1.59-.2,2.59-.32-.88-.97-1.76-1.94-2.9-3.2-.17.82-.2,1.24-.35,1.62-.24.61-.24,1.59-1.42.93-.19-.11-.82.49-1.21.81-.41.33-.77.71-1.28,1.19.08.18.29.61.54,1.13-.39.23-.74.43-1.12.65q3.02,1.64,2.3,3.92c-3.45-1.02-3.33-4.03-3.43-7.17-1.03,1.18-1.74,1.99-2.47,2.83-.93-.9-1.67-1.7-2.51-2.37-.22-.17-.87-.11-1.11.1-.65.55-1.19,1.23-2.05,2.15-.56-.86-1.29-1.51-1.33-2.19-.03-.47.92-.99,1.43-1.49.18-.18.5-.33.53-.53.32-2.27.29-2.35,2.36-2.86,1.16-.29,1.55-.87,1.26-1.92,1.41-.88,2.09-.22,2.57,1.08.38-1.34,1.27-2.42.51-3.92-.28-.56-.04-1.66.36-2.24,1.11-1.6,2.75-2.5,4.67-2.85-.99.74-2.27,1.29-2.9,2.26-.67,1.03-.71,2.47-1.03,3.73.18.09.36.17.54.26.21-.27.54-.51.61-.81.36-1.57,1.83-2.92,3.41-3.18,1.06-.17,2.1-.49,3.16-1.14-.6-.05-1.2-.1-1.79-.15.26-1.47,1.18-2.04,4.04-2.43-.79,1.66-1.57,3.31-2.35,4.96.16.12.32.23.48.35,2.08-1.7,3.9-3.63,5.03-5.9,2.45-.6,4.76-1.18,7.07-1.72.31-.07.67.11,1,.11.37,0,1.01-.01,1.05-.15.57-1.98,1.82-1.17,2.98-.8.94-1.4,1.74-1.53,2.69-.52,2.48-1.91,5.08-3.11,8.33-2.23.6.16,1.36-.23,2.04-.4.2-.05.36-.32.55-.33,1.5-.08,3.01-.1,4.51-.17.54-.02,1.13-.29,1.6-.15.79.24,1.5.72,2.25,1.1.98-1.72,1.16-1.76,3.55-.55.36-.3.74-.62,1.12-.95.95.42,1.85.83,2.89,1.29.16-.59.23-1.18.48-1.69.17-.34.58-.57.88-.85.05.35.11.7.14,1.06.02.2,0,.41,0,1.07.56-.85.9-1.35,1.36-2.04.13.49.21.8.2.8.62-.12,1.16-.25,1.72-.34.64-.11,1.33-.11,1.93-.33,1.88-.68,3.72-1.93,5.81.47.7-4.55,3.81-4.9,7.17-4.89.94-3.23,4.73-4.09,7.81-3.4-.65-2.37,1.64-2.62,2.68-3.83.15-.18.66-.15.96-.07,1.77.45,1.77.47,2.96-.54.09.35.2.63.22.91.01.22-.09.45-.14.68.16.04.32.07.48.11v-2.29c.44-.04.76-.07,1.05-.1q.41-2.09.51-2.09v5.84c.19.07.39.14.58.21.54-.78,1.08-1.55,1.78-2.55h-1.69c-.26-2.68,2.62-.28,2.89-1.76-.56-1.37-1.1-2.69-1.46-3.59,1.65-1.11,2.84-1.91,4.3-2.88-.12-.06.2.09.94.44-1.23-2.56,1.21-2.78,1.92-4.14q.65.71.09,2.65c.44-.57,1.1-1.09,1.26-1.73.29-1.21.79-1.11,1.77-.81,1.69.52,3.45.81,5.47,1.27-.69-1.79-3.8-3.4-5.93-3.5,0-.05,0-.16.01-.16,2.32-.1,2.82-2.4,4.3-3.51.71-.53,1.67-.73,2.52-1.07,1.16-.47,2.3-1,3.48-1.37,1.21-.38,2.47-.72,3.72-.85,1.41-.14,2.85-.03,4.61-.03-1.72-1.89-3.79-.87-5.82-1.38,3.05-1.54,5.93-2.99,8.83-4.45.36.51.61.86.99,1.4.92-2.69,2.49-1.32,4.28-.43-.57-1.24-.92-2-1.38-3,1.26,0,2.24,0,3.22,0,2.87-.02,5.8-.42,8.58.04,2.32.39,4.37.09,6.6-.15,1.38-.15,2.42-.69,3.61-1.06,2.01-.63,3.94,1.23,6.13.02.82-.45,2.05.7,1.19,2.17-.51.88-.99,1.78-1.49,2.66l-.5-.2c.14.39.28.78.49,1.34-1.54.18-2.97.36-4.58.55,2.32.64,2.1,2.7,2.48,4.42.1.48-.03,1.15-.32,1.54-.7.93-1.55,1.73-2.36,2.61-1.58-.35-3.43-.38-4.83-1.19-1.33-.77-2.2-2.35-3.27-3.58-.16.12-.32.24-.48.36l1.36,1.86-.12.34c-.66-.23-1.42-.32-1.97-.7-1.63-1.14-3.2-2.39-4.76-3.64-.28-.22-.41-.66-.53-1.03-.84-2.59-1.99-3.42-4.76-3.45-.53,0-1.07-.13-1.83.05.33.27.62.7.99.78,2.16.44,3.3,1.99,4.33,3.74.66,1.12,1.26,2.76,2.25,3.09,1.94.65,2.57,2.73,4.52,3.24.12-.24.27-.59.46-.92.58-.95,2.02-1.1,2.71-.23,1.71,2.13,3.45,4.24,5.04,6.45.62.87,1.04,1.97,1.23,3.03.08.45-.69,1.04-1.33,1.56.29-1.4-2.78-1.67-1.09-3.35-.56-.45-1.17-.94-1.77-1.44.13-.16.27-.32.4-.49-2.58.26-2.72-2.18-4.14-3.2l.26-.34c.58.37,1.15.75,1.73,1.12.08-.16.16-.32.24-.48-1.07-.51-2.13-1.02-3.2-1.53-.06.14-.13.28-.19.41,2.32,3.78,4.65,7.56,7.13,11.6-1.33.08-2.4.14-3.48.2-.02-.2-.05-.4-.07-.6.3-.13.6-.26.77-.33-1.5-.5-3.04-1.02-4.59-1.54-.08.15-.16.29-.23.44.59.51,1.18,1.02,2.07,1.79.02.34.06,1.15.1,1.96-.19.11-.38.23-.58.34.28-2.27-1.28-2.7-2.64-3.32-.36.61-.72,1.22-1.19,2.03-.38-.59-.63-.88-.78-1.22-.51-1.16-.48-1.12-1.64-.55-.3.15-.79-.08-1.19-.13-.06.13-.12.26-.18.39.39.22.76.49,1.18.64,1.28.47,2.29,1.28,2.4,2.66.05.69.29.88.72,1.3.62.61.91,1.54,1.35,2.34-.11.08-.22.17-.33.25-.42-.21-.84-.6-1.25-.58-.52.02-1.03.35-1.54.58-.4.18-.94.66-1.13.54-.39-.24-.92-.91-.82-1.21.57-1.7-1.15-1.28-1.4-2.16-.16.11-.32.22-.48.32.82,1.55,1.63,3.1,2.45,4.65.18.34.47.66.54,1.03.09.52.03,1.07.03,1.61-.44-.28-.88-.56-1.44-.91-.12.14-.39.47-.69.82-.15-.09-.32-.15-.41-.26-1.03-1.22-2.03-2.47-3.08-3.68-.32-.37-.7-.71-1.1-.98-.8-.54-2.01-.55-2.1-1.99-.02-.31-1.03-.57-1.58-.85-.12.17-.24.34-.36.5,1.09,1.18,2.11,2.43,3.3,3.5.61.55,1.04,1.32,1.46,1.88,1.59,2.15,2.86,4.59,3.92,7.06.42.97-.04,2.31-.1,3.61-1.51-1.04-3.54-1.43-3.5-3.88,0-.4-.79-.82-1.47-.99.32,1.17.63,2.35.97,3.52.24.85.15,1.47-.79,1.88-1.07.47-1.32,1.12-.5,2.2.37.48.4,1.49.15,2.08-.19.44-1.06.59-2,1.04-.01.04-.18.54-.36,1.11-1.07-.68-2.01-1.29-2.79-1.79-.17.96-.36,1.99-.54,3.04.43.08,1.1.21,2.08.39-1.39,1.77-3.8,2.75-3.49,5.47l-.67-.16c.03-.71.12-1.43.07-2.13-.02-.34-.38-.97-.48-.94-1.01.23-1.99.56-3.21.93-.02-.14-.09-.57-.18-1.15-.8.14-1.69.3-2.57.46,1.5.84,1.75,1.72,1.29,4.88.19.06.48.06.57.19.38.56.69,1.15,1.03,1.73-.72.15-1.52.57-2.13.38-1.09-.34-1.87-.54-2.37.77-.14.38-.79.95-.88.89-.52-.32-1.06-.73-1.37-1.24-.27-.43-.23-1.05-.24-1.11-.72-.43-1.07-.64-1.54-.92-.65.89-1.26,1.74-.01,2.81.24.21.11.85.16,1.3-.21.03-.41.06-.62.1-.27-.66-.55-1.31-1.02-2.46-.34,1.04-.52,1.61-.75,2.29-1.07-.53-2.75-.53-1.76-2.92-.5.38-.84.51-.85.67-.11,1.25-.24,2.5-.19,3.75.06,1.27.15,1.26,1.5,1.42-.81.49-1.63.97-2.48,1.49-.61-.89-1.08-1.57-1.47-2.13.42-.66,1.19-1.48,1.04-1.72-.55-.87-1.3-1.72-2.17-2.25-.69-.42-1.67-.36-2.66-.54-.31,1.1-.62,2.22-.93,3.34.15.06.31.11.46.17.39-.44.79-.87,1.19-1.31.72.57,2.01,1.18,1.96,1.64-.09.84-.98,1.59-1.62,2.51.3.1.75.26,1.56.55-2.85.53-4.51-1.03-6.3-2.43-.43.38-.82.73-1.23,1.09-1.32-.92-1.43-3.36-3.92-2.65.23.5.49,1.02.72,1.56.12.3.37.77.25.91-1.69,2.05.51,1.96,1.54,2.66-.27.62-.55,1.25-.82,1.86-3.18-1.25-2.17-5.18-4.46-6.92-.19.05-.37.1-.56.15.08.97.17,1.94.26,3.04-.61.26-1.33.57-2.36,1.01,1.23.67,2.65.79,2.49,2.32-.09.89-.33,1.76-.5,2.63-.16-.02-.32-.05-.47-.07-.02-.43-.04-.85-.04-.95-.84-.74-1.5-1.32-2.58-2.27.47,1.45.82,2.53,1.17,3.62.35,1.09.69,2.19,1.03,3.28-.17.06-.34.12-.5.17-.7-.53-1.41-1.06-2.11-1.59-.47.69-.93,1.38-1.48,2.2-.41-.2-1-.49-1.51-.74.99-.76,1.89-1.45,3.21-2.46-1.17-1-2.21-1.87-3.39-2.88-.5,1.6-.87,2.77-1.25,3.96-.17-.43-.32-1.06-.65-1.58-.23-.36-.69-.57-1.05-.84-.19.41-.61.89-.52,1.23.22.89.66,1.73,1.04,2.65-1.33-.12-2.28.31-3.23,1.53-1.25,1.59-1.33-.5-2.21-1.26-.69,1.19-1.35,2.32-2.02,3.47-1.49-.5-1.79-1.47-1.09-3.28-1.04-.97-2.01-1.86-3.04-2.81-.28.34-.69.83-1.48,1.78-.56-1.4-1.22-2.46-1.4-3.6-.49-3.07-.65-6.21-3.49-8.89-.12,1.16-.44,2.1-.26,2.94.31,1.48.89,2.91,1.41,4.33.69,1.88,1.44,3.74,2.22,5.74-.09.04-.61.25-1.02.42.72.67,1.42,1.3,2.11,1.94-.16.23-.32.47-.48.7-1.17-.6-2.48-1.03-3.48-1.84-.84-.67-1.25-1.15-1.72.2-.07.19-.48.26-.99.08.34-.59.68-1.19,1.08-1.88-.77-.66-2.24-1.32-.29-2.52-.6-.53-1.08-.95-1.56-1.38,1.08-1.08,1.17-3.26.13-4.74-1.63,1.14-1.04,2.94-1.23,4.38-.21,1.51-.65,3.39,1.92,3.94-.09.15-.17.3-.26.45-.6.15-1.2.31-1.87.48-.09.79-.21,1.73-.32,2.68-.09.03-.18.07-.27.1-.27-.61-.55-1.22-.64-1.42-1.32.33-2.61.66-4.09,1.03-.07.49-.16,1.18-.28,2.1-2.5-.85-3.42-3.33-5.25-4.86-.4,1.63-1.02,3.12.07,4.69.2.28-.26,1.03-.43,1.61-.44-.65-.76-1.11-1.11-1.62-.37.4-.62.67-.91.98-3.03-2.05-6.09-3.98-7.74-7.39-2.01.82-2.8.43-3.95-2.2-.66.31-1.6.46-1.93.99-.55.89.91,3.08,2.38,3.88-1.93.07-1.86.04-2.71-1.64-.37-.72-1.06-1.28-1.6-1.92-.13-.81-.35-1.62-.35-2.43,0-.58.18-1.26.52-1.7.42-.54,1.07-.92,1.67-1.27.35-.2.83-.3,1.22-.24.16.03.39.67.3.94-.42,1.23.26,1.31,1.18,1.29.53-.01,1.06.08,1.59.13.07-.13.13-.26.2-.39-.52-.28-1.05-.57-1.55-.84.14-.6.28-1.2.41-1.8-.2.07-.4.13-.6.2-.46-.62-1.2-1.19-1.31-1.87-.13-.75.32-1.6.51-2.41-.18-.13-.36-.26-.54-.39-.08,2.02-1.05.73-1.85.67-.12.86-.45,1.69-.28,2.4.2.79,1.16,1.47.03,2.14-.97-.54-1.88-1.05-2.98-1.66-.08,1.02-.36,1.84-.14,2.49.54,1.62,1.32,3.16,2,4.73ZM199.7,136.3q-.95-2.77-3.52-2.53c1.36.95,2.46,1.72,3.55,2.49,1.21,1.33,2.46,2.6,4.13,3.36-.05-.55-.21-.95-.44-1.31-1.13-1.83-2.32-2.45-3.73-2ZM151.24,185.29c1.27,2.8-1.55,2.13-2.7,2.89.29,2.03,1.67.13,1.9.87.14.7.28,1.39.42,2.09.66-.15,1.32-.31,2.04-.48.31.26.78.67,1.25,1.07.13-.11.25-.21.38-.32-.71-2.2.3-5.17-3.28-6.12ZM90.36,184.63v-3.47c-1.21-.25-2.01-.41-2.84-.58-.05.54-.1,1.06-.16,1.64-1.95.19-1.98,1.74-2.09,3.13-.02.29.65.64,1.24,1.18.15-.98.22-1.44.32-2.14.69.42,1.27.77,1.99,1.21-.07-.55-.12-.99-.19-1.48.5.15.9.26,1.73.51ZM120.94,183.42c-.36-1.01-1.16-2.12-.89-2.8.37-.92.16-1.41-.22-2.08-.77-1.36-1.45-2.61-.57-4.35.36-.72-.39-2.01-.64-3.04-.27.06-.54.11-.81.17.49,4.68.98,9.37,1.47,14.05.14-.02.29-.03.43-.05.44-.68.88-1.36,1.23-1.9ZM144.26,155.97c-.13.16-.26.32-.39.48.31.63.59,1.28.93,1.9.39.71,1.12,1.36,1.19,2.08.36,3.9,2.93,6.59,4.87,9.63-1.78-4.48-3.62-8.93-5.53-13.35-.15-.34-.71-.5-1.07-.74ZM87.46,188.61s.22-.36.28-.46c1.01.71,1.9,1.34,2.89,2.04-.34.06-.64.11-.95.15-.01.13-.03.27-.04.4.77.11,1.54.23,2.68.4-.44-1.29-.67-2.07-.98-2.83-.23-.56-.49-1.44-.9-1.53-1.04-.25-2.16-.16-3.25-.19-.29,0-.61-.05-.86.05-.26.11-.46.37-.69.56.21.22.4.47.64.65.34.26.72.46,1.18.75ZM140.28,165.18s.08-.08.11-.12c.93,1.65,1.85,3.31,2.95,5.27,0-.76.09-1.2-.02-1.58-.57-2.04-1.13-4.08-1.84-6.07-.19-.53-.88-.87-1.34-1.3-.3.53-.75,1.04-.86,1.61-.06.33.44.75.64,1.15.16.33.24.7.36,1.05ZM93.23,185.71c.26-.62.48-1.14.85-2-.92.23-1.51.38-2,.5.36,1.1.65,2.02.93,2.89.68.05,1.39.11,2.06.17,1.27-1.78.54-3.75-.28-5.71-.18,0-.36.02-.54.03.17,1.5.35,3,.55,4.7-.63-.23-1.08-.39-1.57-.57ZM196.29,149.04c.23-.1.45-.2.68-.3-.13-1.14-.2-2.3-.43-3.42-.05-.25-.69-.62-.97-.55-.71.17-1.36.55-2.24.95.97,1.08,1.97,2.21,2.97,3.33ZM192.49,141.99c-.16.49-.29.91-.57,1.8-1.06-1.19-1.85-2.13-2.71-3-.26-.26-.71-.32-1.4-.61,1.55,2.24,2.84,4.1,4.12,5.95.19-.08.37-.15.56-.23v-3.91ZM127.17,170.26c.2,2.2.36,4.06.53,5.93.84-.97,1.65-1.99,1.6-2.97-.05-.96-.2-2.38-2.13-2.96ZM142.44,191.45c-1.19,2.29.71,3.34,1.07,4.78.1.38.93.58,1.43.86.17-.18.35-.35.52-.53-.94-1.59-1.89-3.19-3.02-5.11ZM173.58,150.56c-.27.05-.55.09-.82.14.11.66.14,1.34.35,1.97.41,1.25,1.15,2.44,1.31,3.7.17,1.35.53,2.4,1.73,3.14-.87-3.01-1.72-5.98-2.57-8.95ZM177.46,145.49c1.61,1.34,3.22,2.67,4.83,4.01-.75-2.38-2.53-3.51-4.83-4.01ZM159.65,181.77l-.75.63c1.27.34.13,2.91,2.95,2.15-.82-1.04-1.51-1.91-2.2-2.78ZM216.37,122.58c-.25.13-.49.25-.74.38.12,1.33,1.63,1.94,1.77,3.26.23-.12.46-.24.69-.36-.58-1.09-1.15-2.19-1.73-3.28ZM82.94,179.51c-.71,1.28-1.14,2.53.39,4.04-.16-1.65-.27-2.84-.39-4.04ZM187.72,166.16c-.11.12-.23.23-.34.35.66,1.01.94,2.46,3.25,2.17-1.18-1.02-2.04-1.77-2.91-2.52ZM191.16,162.6c.19-.05.38-.1.57-.16-.39-1.51-.78-3.01-1.17-4.52-.19.05-.37.09-.56.14.39,1.51.78,3.03,1.16,4.54ZM168.22,158.31c-.18.11-.37.22-.55.32.77,1.49,1.53,2.97,2.3,4.46.12-.06.24-.12.36-.17-.7-1.54-1.41-3.07-2.11-4.61ZM183.99,178.87c-1.6,1.63.06,2.01.39,2.77.19-.06.38-.12.57-.19-.27-.74-.55-1.49-.96-2.58ZM92.33,182.85c.09.07.19.14.28.21.29-.41.8-.81.81-1.22.01-.55-.37-1.1-.58-1.65l-.51.15v2.52Z"/>
      <path class="st0" d="M91.88,110.22c-.85-1.49-1.71-2.97-2.54-4.46-.25-.44-.56-.89-.62-1.37-.1-.88-.03-1.78-.03-2.72.33.25.68.51,1.03.77-.09-1.02-.17-1.96-.25-2.9.9,1.33,1.8,2.66,2.82,4.16.96-.49,1.42.29,1.88,1.31.48,1.06,1.15,2.03,1.8,3.14.11-1.38.2-2.54.3-3.7.69.64,1.37,1.28,2.06,1.92l.3-.28c-1.02-1.23-2.04-2.47-3.05-3.7-.16.11-.31.23-.47.34.4.59.8,1.17,1.2,1.76-.48.02-1.17.26-1.4.03-.95-.94-2.37-1.95-2.48-3.05-.23-2.34-1.82-1.59-3-1.88-.06-.21-.11-.43-.18-.64-.13-.41-.28-.81-.42-1.22.4.21.8.43.99.53,1.79-.64,3.5-1.26,5.42-1.95v1.81c2.34-.82,1.72,1.94,3.07,2.41l-.07-.06c.35.94.69,1.88,1.08,2.93.38-1.13.68-2.03.98-2.92l-.02.04c.64.39,1.29.79,2.15,1.31-.3-.57-.43-1.26-.84-1.53-1.07-.71-.73-1.19.1-1.69.5-.3,1.04-.55,1.92-1.02.08,1.18.15,2.33.23,3.53,1.92-.47.59-2.33,1.24-3.34q1.61-.02,3.8,2.8c.28-.25.58-.47.82-.74.91-1.06,1.54-.98,2.31.09.49.69,1.21,1.21,1.98,1.95-.27-1.39.73-3.23,1.57-3.28,1.94-.11,2.73.61,2.88,2.45.04.48.42.93.65,1.42,1.06-.53,1.12-1.04.86-2.06-.6-2.34-.16-4.89,1.41-6.53.98-1.03,3.19-.92,4.86-1.2.26-.04.72.57.94.96.46.81.83,1.68,1.55,2.42-.25-.83-.51-1.66-.79-2.58,1.85-.79,2.76.44,3.59,1.56.84,1.13,1.5,2.4,2.61,3.55-.12-1.31-.23-2.63-.35-3.94-.12.11-.24.23-.36.34-.75-.56-1.81-.96-2.19-1.71-1.25-2.46-2.28-5.03-3.31-7.6-.08-.19.52-.65.9-1.1-.34-.27-.69-.54-1.37-1.08,1.79-.88,3.37-1.65,4.94-2.43.08.1.16.21.24.31.11-.45.21-.9.38-1.62,1.06,1.56,1.95,2.86,2.98,4.38v-1.62c.9,1.65,2.7,2.35,2.98,4.73.27,2.28.66,5.07,2.53,7.02.18.19.42.33.55.43-1.2-4.11-2.42-8.25-3.64-12.4.18-.1.36-.2.54-.3.56.45,1.12.91,1.85,1.5v-2.65c.13-.08.26-.15.4-.23.92,1,1.84,2.01,2.76,3.01.13-.11.26-.23.39-.34-.3-1.49-2.8-1.99-1.99-4.11.93.83,1.77,1.59,2.8,2.52.24-.8.38-1.29.56-1.89,2.23,1.51,4.74,2.57,5.21,5.6.18-.23.33-.44.53-.69.85.69,1.7,1.38,2.77,2.25-.13-.89-.23-1.6-.37-2.6-.29.42-.42.6-.52.74-.6-.81-1.29-1.59-1.8-2.48-.37-.64-1.36-1.52.23-2.05.1-.03.06-.5.1-.83.99.09,1.47.45,1.71,1.53.16.69,1.14,1.19,1.85,1.87-.16.23-.39.56-.64.91,2.07.5,1.71,2.4,2.35,3.7.18.35.61.58,1.01.93-.2-2.74-2.43-5.11-.75-8.03.36.52.7,1.02,1.09,1.59.56-.69.84-1.33,1.31-1.52.45-.18,1.22-.07,1.61.22.82.61,1.49,1.42,2.5,2.44v-1.64c.94.4,1.84.78,2.95,1.25-.08,1.26-.17,2.64-.26,4.02.17.01.34.02.51.04.18-1.52.37-3.03.57-4.68.64.77,1.15,1.39,1.66,2,.11-.29.22-.57.23-.61.49-.05.94-.2,1.33-.1.71.17,1.41.46,2.08.76,2.01.89,4.01,1.81,6.19,2.79v2.24c.1.02.2.03.29.05.1-.54.2-1.07.33-1.73.3.1.67.12.84.31.65.77,1.25.98,2.4.9,1.99-.13,3.55,2.58,3.19,4.93.34-.25.87-.43.99-.75.64-1.87,1.91-2.22,3.75-1.63-.28.77-.57,1.54-.89,2.42-.3-.22-.59-.44-.87-.65-.16.02-.33.04-.49.07.09.6.19,1.2.28,1.8.87-.31,1.74-.63,2.71-.98-.17-.28,2.96,2.43,3.05,2.45v3.07c.59-.88.9-1.34,1.35-2.01.63.59,1.2,1.12,1.89,1.77-.05-.47-.09-.83-.18-1.73.79.64,1.63.99,1.72,1.49.1.55-.47,1.23-.81,1.99.12.19.39.65.85,1.41.4-.52.74-1.1,1.21-1.54.45-.42,1.03-.68,1.56-1.02-.07.41-.25.84-.17,1.23.12.63.41,1.23.66,1.93.41-.56.94-1.29,1.51-2.07.19.16.59.49,1.17.98-.54.58-1.04,1.12-1.71,1.84.2.17.65.54,1.15.95-.11.34-.25.76-.39,1.18,0,0,0-.02,0-.02-2.46,2.45-4.85,4.99-7.42,7.32-1.18,1.07-2.72,1.75-4.1,2.6-.17-.13-.34-.26-.51-.39.22-.95.44-1.9.67-2.91-1.64,1.03-3.24,2.04-5.16,3.24-.37-.89-.71-1.73-1.09-2.67-.41.48-1.06.94-1.28,1.56-.65,1.9-1.97,2.19-3.65,1.78-.45-.11-1.08-.31-1.23-.65-.14-.31.22-.88.43-1.3.52-1.02,1.09-2.01,1.64-3.01-.17-.09-.33-.17-.5-.26-.39.79-.74,1.59-1.18,2.35-.94,1.63-2.21,2.74-4.24,2.81-1.48.05-2.95.28-4.34.42-.52,1.32,1.45,2.61-.69,3.73-.22-1.23-.42-2.31-.62-3.39-.12-.05-.23-.1-.35-.15-.59,1.41-1.18,2.83-1.87,4.5v-6.12c-.2-.09-.41-.17-.61-.26-.83,1.31-1.45,2.73-3.38,2.66-1.37-.05-2.76.58-4.35.95-.22.18-.66.78-1.21.91-.44.11-1.02-.34-1.9-.67-.22.14-.8.52-1.61,1.05-.55-3.1-1.07-6.07-1.59-9.03-.16.02-.33.03-.49.05.06,1.19.14,2.39.17,3.58.07,2.34.19,4.68.13,7.02-.03,1.26-1.17,1.67-2.06,1.25-1.74-.81-2.42.2-3.15,1.38-.26.41-.56.8-1.04,1.47-.4-.76-.68-1.28-.98-1.86q1.45-.26.22-3.52c-.82.83-1.2,1.67-.74,2.84.43,1.07.32,1.89-1.38,1.46,0,.53.17,1.11-.04,1.46-.29.48-1.22,1.17-1.27,1.13-1.02-.98-1.49-.16-2.14.48-.29.28-.89.24-1.33.33-.16-.69-.29-1.26-.5-2.2-1.29,2.28-3.01,2.61-5.12,2.01-.34-.1-.87.48-1.39.79-.54-6.17-2.17-12-4.48-17.67.32,1.37.57,2.76.96,4.11.45,1.54.83,3.01.53,4.69-.14.76.64,1.67.98,2.52.4.98,1.02,1.99-.31,2.92,1.61,1.29,1.96,3.04,1.24,4.73-.79,1.88-2.82,2.64-4.95,2.2-2.17-.45-2.96-2.05-3.01-4.08-1.43-.03-2.53-1.29-2.88-3.17-.07-.37-.09-.96-.31-1.06-2.56-1.17-3.41-3.74-4.86-5.8-.09-.13-.25-.21-.39-.34.67,1.81,1.34,3.6,2.06,5.53,0,0,.42.1.83.21-.19.36-.38.72-.56,1.09-.18.4-.34.81-.34,1.36.24-.22.48-.44.76-.69.24,2.46.73,2.9,3.2,2.8-.38.23-.64.39-.55.34,1.28,1.04,2.65,2.15,3.83,3.11-.77.68-1.35,1.15-1.89,1.66-1.23,1.18-2.55,2.04-4.71,1.1.56.89.87,1.39,1.36,2.18-1,.26-1.92.5-2.92.75-.11.31-.34,1.15-.42,1.13-.85-.14-1.68-.42-2.37-.62-.79.05-1.48.09-2.16.13-.56-1.92-.92-2.21-2.71-2,.51.97,1.01,1.9,1.51,2.86.56-.4.89-.65,1.23-.89.21.56.42,1.12.72,1.91-1.28-.09-2.38-.28-3.46-.2-.5.04-1.12.48-1.4.93-.92,1.45-1.98,1.6-3.25.34-2.39-2.39-4.79-4.77-7.47-6.95,1.84,2.46,3.68,4.91,5.6,7.48-.9.17-1.54.29-1.93.37-.3.75-.37,1.54-.78,1.8-.47.3-1.24.15-2.02.2-.03.08-.07.58-.31.73-1.28.77-2.56,1.62-3.95,2.1-.95.33-2.09.11-3.12.14.38,1.34.88,1.88,3.77,4.46-1.43-.59-2.86-1.18-4.29-1.78-.07.08-.14.16-.21.25.69.91,1.37,1.82,2.14,2.82-1.23.59-1.75.14-2.16-.73-.6-1.28-1.74-1.44-2.65-.41-2.88,3.26-4.19,3.57-7.86,2.35-.25-.08-.54-.05-.81-.06-.04.15-.07.29-.11.44.87.2,1.74.46,2.63.6,1.32.21,1.64.86.9,1.93-.98,1.42-2.13,2.1-3.9,1.25-.64-.3-1.48-.19-2.17-.26.42.87.79,1.64,1.22,2.54-2.12.48-3.89.89-5.89,1.34.95.58,1.74,1.06,2.79,1.69-4.91,2.62-9.88,1.29-14.7,1.68,1.15.3,2.3.6,3.46.9-.03.18-.06.36-.09.54-2.24,1.21-4.7,1.24-7.52,1.04,1.29.96.71,1.58.05,1.97,1.75-.08,3.55-.12,5.34-.3.27-.03.42-.92.73-1.01,2.18-.61,4.3-1.78,6.84-.61-.68.38-1.32.85-2.04,1.13-2.23.89-4.46,1.78-6.73,2.53-2.36.77-6.81.68-7.94-1.64.47-.78.97-1.6,1.61-2.66-.16-.2-.57-.74-1-1.3,1.03-.42,1.93-1.02,2.89-1.12.92-.1,1.9.3,2.55.42-.12-.89-.22-1.6-.3-2.16-.86-.06-1.7-.12-2.67-.19.17-.73.27-1.18.33-1.42,1.08.17,2.09.34,3.21.52-1.06-.95-1.98-1.76-3.28-2.91h4.68c-.39-.67-.66-1.14-.87-1.51-.7-.22-1.58-.25-1.95-.71-.32-.39-.07-1.26-.07-1.92.2-.02.4-.04.6-.05.24.52.47,1.05.71,1.57.07,0,.14-.02.21-.02-.09-.91-.17-1.82-.28-2.94.76.1,1.32.17,2.45.31-.94-.9-1.56-1.48-2.3-2.18.67-.58,1.64-1.02,1.9-1.73.42-1.14-.33-1.77-1.74-1.46.02-.16.04-.32.06-.49.32-.11.63-.21.95-.32.65-.23,1.3-.47,1.95-.71-.35-.54-.7-1.07-1.06-1.61-.15.06-.29.12-.44.18-.1.35-.19.7-.29,1.07-.75-.27-1.49-.54-2.22-.81.78-2.16,2.18-2.52,4.42-1.08.18-.32.36-.63.54-.95-2.49-1.34-2.79-4.16-.72-5.77.22-.17.45-.56.41-.8-.36-1.91.61-3.5,1.18-5.18.4-1.19.78-2.4,1.34-3.51.38-.74-.23-2.26,1.47-2.12.03,0,.11-.66.17-1.02.78.66,1.46.48,1.16-.26-.2-.51-.59-.94-.89-1.41.11-.1.22-.19.33-.29l3.85,2.94c.09-.07.18-.14.27-.21-.31-.4-.55-1.01-.95-1.16-1.87-.71-2.61-1.74-1.4-3.61.13-.21.1-.52.42-1.01l.36,1.2c.21-.13.41-.25.62-.38,0-1.05-.07-2.1.04-3.13.05-.43.41-1.07.76-1.16.59-.16,1.28.03,2.1.08-.03-.55-.07-1.13-.1-1.78,3.18.9,3.66,4.05,5.35,6.32.59-2.04-1.39-2.95-1.73-4.56.18-.19.43-.46.41-.44-1.21-1.87-.96-3.77-1.4-5.68,1.64.4,3.03.47,2.93,2.37-.04.8.26,1.62.41,2.43-.18.04-.35.08-.53.12.24.27.49.54.72.82.2.24.38.51.6.81.23-1.29.54-2.46.61-3.64.04-.7-.46-1.43-.44-2.14.05-1.6.27-3.2.43-4.91.68.31,1.17.54,1.93.89v-3.76c1.92,1.16,1.04,3.09,1.66,4.42h.47c0-.62.04-1.25,0-1.87-.05-.69-.17-1.37-.26-2.05.17-.1.33-.2.5-.3.61.61,1.23,1.21,2.03,2,.07-.84.13-1.55.19-2.27.11-.07.22-.14.34-.22.5.66,1.04,1.29,1.48,1.99.85,1.35,1.61,2.76,2.5,4.09.31.46.91.74,1.38,1.1.67,2.22,1.34,4.44,2.01,6.66-.1-2.13-.55-4.13-1.09-6.1-.07-.24-.63-.35-.96-.52ZM133.13,90.26c.86.55,1.72,1.1,2.55,1.63.38-1.83-2.56-3.58-.54-5.41-.44-1.56-.85-2.99-1.29-4.51-.56.69-.99,1.23-1.41,1.75,1.36,2.1,1.74,4.27.72,6.59-.29-.83-.57-1.66-.86-2.49-.16.03-.31.06-.47.09.16,1.42.33,2.84.49,4.26h.4c.14-.64.27-1.27.41-1.9ZM108.47,121.64c-.24.16-.48.32-.71.47,1.99,2.97,3.98,5.93,5.97,8.9.12-.08.25-.16.37-.23-.72-3.77-4.08-5.89-5.63-9.14ZM67.08,151.2c-2.1-.65-4.06-1.25-6.35-1.96,1.54,1.82,5.31,2.95,6.35,1.96ZM191.68,97.5c-.17-.07-.35-.14-.52-.2-.92,1.78-1.83,3.56-2.92,5.67.6-.12,1.08-.09,1.16-.26.8-1.72,1.53-3.47,2.28-5.21ZM137.96,109.88c-.27.06-.54.11-.81.17.77,2.29,1.54,4.58,2.31,6.87l.41-.11c-.63-2.31-1.27-4.62-1.9-6.93ZM144.98,89.22c-.63-1.48-1.29-3.02-2.07-4.85.09,1.74.17,3.22.25,4.56.71.11,1.3.21,1.82.29ZM125.54,99.44c-.17,0-.33-.01-.5-.02-.62,1-1.25,2.01-1.87,3.01.11.06.21.13.32.19.28-.38.55-.76.88-1.22.46.39.83.7,1.33,1.13-.06-1.21-.11-2.15-.16-3.09ZM122.92,109.94c.26-.11.53-.21.79-.32-.81-1.64-1.61-3.27-2.42-4.91l-.39.15c.68,1.69,1.35,3.39,2.03,5.08ZM85.3,107.44c-.04.05-.08.1-.12.15.74,1.58,1.48,3.15,2.21,4.71.23-.52.49-1.09.75-1.67-.97-1.09-1.9-2.15-2.83-3.2ZM126.29,98.29v-3.11c-.49.13-.94.26-1.47.4.46.9-.15,2.26,1.47,2.7ZM117.6,111.92l.58-.28c-1.08-1-.18-2.99-1.81-3.71-.17.08-.34.17-.51.25.58,1.25,1.16,2.49,1.74,3.74ZM151.24,91.11c.2.12.6.37,1.36.85-.45-1.58-.78-2.73-1.11-3.88-.08.02-.17.05-.25.07v2.96ZM88.54,115.97c.08-.1.15-.21.23-.31-.56-.8-1.11-1.59-1.76-2.52-.26-.02-.76-.06-1.68-.14,1.25,1.16,2.23,2.07,3.21,2.98ZM70.77,156.64c-.01.21-.02.42-.03.63h3.68c0-.14.01-.28.02-.41-1.22-.07-2.45-.15-3.67-.22ZM82.12,115.49c-.1.06-.2.11-.3.17.65,1.09,1.3,2.19,2.16,3.62.24-.88.35-1.3.37-1.39-.88-.95-1.56-1.68-2.24-2.41ZM146.84,88.24c-.51.78-.78,1.2-.89,1.36.23,1.18.42,2.13.61,3.08.09,0,.19,0,.28,0v-4.44Z"/>
    </g>
    <path class="st0" d="M216.06,110.76s.1-.42.38-.59c.39-.24,1.15-.55,1.33-.38,1.86,1.73,3.82,1.81,6.05.74,2.13-1.02,4.54-.05,5.5,2.09.32.71.64,1.1,1.51.73.31-.13.78.13,1.18.22v.57c-1.06.15-2.12.3-3.34.47.13.42.24.78.35,1.14-1.62-1.27-2.93-.27-4.28.42-.13.07-.34-.02-.5.02-1.67.38-3.43-.87-5.05.31-1.09-1.02-2.27-.24-3.43-.22-3.18.04-6.43.69-9.48-.85-.16-.08-.43.07-.65.07-.16,0-.31-.05-.54-.09.04-.55.09-1.07.15-1.87,1.92,0,3.83.01,5.74,0,.95,0,1.83-.01,2.13-1.31.14-.61.8-1.16,1.35-1.59.23-.18.78.04,1.6.12Z"/>
    <path class="st0" d="M204.55,106.11s0,.02,0,.02c.53-.65,1.07-1.31,1.61-1.96.16-.19.29-.46.5-.55.94-.38,1.9-.7,2.93-1.07.1.7.19,1.39.27,1.96.72,0,1.28.01,1.84,0,.57-.01,1.14-.05,1.7-.08-.18.78-.29,1.81-.65,2.76-.93,2.44-2.86,3.79-5.24,4.67-1.68.62-3.28,1.47-4.95,2.15-.88.36-1.81.57-2.72.85l-.34-.54c.48-.52.9-1.14,1.47-1.55.86-.61,1.78-1.15,2.75-1.57.53-.22,1.2-.09,1.8-.17.3-.04.65-.13.87-.32,1.21-1.04,2.39-2.13,3.49-3.13-.13-.04-.57-.16-1.11-.3.11-.59.2-1.11.33-1.85-1.67,2.35-3.61,4.07-6.4,5.04-.46-2.04,1.63-2.82,1.83-4.36Z"/>
    <path class="st0" d="M73.27,183.74c.6.09,1.11.17,1.61.25v1.6c.44-.09,1.03-.4,1.28-.22.53.37,1.08.94,1.26,1.54.19.65-.03,1.42.12,2.2.66-1.88,1.96-1.18,3.39-1.11-.47.58-.77.93-1.17,1.42,2.05.49,1.07,1.74.63,2.65-.16.34-1.15.27-1.76.39-.05-.14-.1-.27-.16-.41-.3.42-.6.85-.95,1.34-1.53-1.61-1.47-3.61-1.3-5.39.1-1.07-.4-1.23-.91-1.49-1.2-.6-1.72-1.18-2.04-2.76Z"/>
    <path class="st0" d="M214.17,149.04c-.17.21-.54.7-.92,1.18-.46-.47-.94-.93-1.38-1.43-.09-.1-.08-.34-.02-.49.24-.6-1.24-1.78.47-1.83,1.23-.04,1.85.86,1.84,2.56Z"/>
    <path class="st0" d="M87.26,99.58c.34,1.4.59,2.4.9,3.68-1.35-.76-2.34-1.31-3.33-1.86-.02-.19-.04-.37-.05-.56.78-.39,1.55-.79,2.48-1.26Z"/>
    <path class="st0" d="M137.54,83.19c-.59-.84-1.18-1.68-1.78-2.55.56-1.01,1.4-1.44,2.3-.81.27.19-.1,1.27-.15,1.94-.03.39,0,.78,0,1.17l-.36.25Z"/>
    <path class="st0" d="M61.35,176.49c.24.37.4.62.59.9-.78.44-1.53.87-2.29,1.3-.15-.09-.3-.18-.45-.27.63-1.17,1.25-2.33,1.9-3.55.73.31,1.28.54,2.12.89-.69.27-1.17.46-1.86.73Z"/>
    <path class="st0" d="M98.3,100.53c-.17-.52-.33-1.04-.55-1.72.66-.24,1.28-.47,1.77-.65.28.89.51,1.63.75,2.36,0,0,.02-.04.02-.04-.69,0-1.37,0-2.06,0l.07.06Z"/>
    <path class="st0" d="M127.53,89.13c-.6-.38-1.19-.76-2.05-1.3.84-.4,1.46-.69,2.4-1.13.1.92.18,1.64.26,2.35-.2.03-.4.06-.6.08Z"/>
    <path class="st0" d="M126.95,89.8c1.07.17,2.12.36,1.97,2.13-.76-.55-1.52-1.1-2.28-1.65.11-.16.21-.32.32-.48Z"/>
    <path class="st0" d="M52.18,173.63v-1.89c.87.25,1.61.47,2.36.68.01.14.02.28.03.42-.72.24-1.43.47-2.39.79Z"/>
    <path class="st0" d="M95.75,197.17c.67-.04,1.03-.06,1.44-.08.3.96.61,1.93.92,2.9-.1.05-.2.11-.3.16-.64-.93-1.29-1.87-2.06-2.98Z"/>
    <path class="st0" d="M212.94,108.75c.49-.49.97-.98,1.46-1.46.24.31.48.63.71.94-.55.39-1.11.77-1.66,1.16l-.51-.64Z"/>
  </g>
  <g>
    <path d="M366.42,55.73h184.29c-.59,5-1.13,9.84-1.74,14.66-1.56,12.43-3.21,24.85-4.67,37.29-.22,1.91-.97,2.19-2.6,2.19-14.82-.04-29.65-.03-44.47-.02-44.64,0-89.28,0-133.91,0-1.05,0-2.1,0-3.64,0,2.26-18.15,4.5-36.08,6.74-54.11ZM399.35,64.6c.16,1.51.58,2.74.37,3.85-1.43,7.67-3.01,15.31-4.51,22.97-.7,3.54-1.35,7.09-2.08,10.95,2.58,0,4.77.09,6.94-.06.56-.04,1.38-.79,1.54-1.36.59-2.19.95-4.45,1.4-6.68.89-4.41,1.77-8.82,2.66-13.23,3.13,5.73,5.76,11.48,8.37,17.24,2.28,5.03,2.25,4.98,7.69,3.69,1.65-.39,2.42-1.17,2.72-2.83,1.12-6.16,2.17-12.33,3.59-18.42,1.38-5.91,1.02-12.45,5.95-17.15-.21-.1-.28-.17-.35-.17-.24,0-.49,0-.72.06-7.75,2.05-11.77,7.25-12.95,15.04-.69,4.58-1.72,9.12-2.59,13.67-.16,0-.31,0-.47,0-4.23-9.64-8.45-19.28-12.72-29.01-1.79.53-3.33.99-4.84,1.44ZM494.55,102.37c2.21,0,3.92-.09,5.61.03,1.67.11,2.42-.39,2.75-2.18,1.66-9.03,3.49-18.03,5.25-27.05.63-3.22,1.25-6.45,1.95-10.01-2.48.57-4.5,1.15-6.56,1.48-1.38.22-1.85.91-2.09,2.21-.84,4.47-1.76,8.93-2.75,13.38-.14.63-.81,1.63-1.26,1.64-4.05.13-8.1.07-11.95.07.15-4.04.78-7.87.3-11.55-.52-4.02-4.3-6.85-8.28-7.15,1.83,2.62,1.61,5.42,1.05,8.25-.53,2.71-1.11,5.41-1.64,8.12-1.51,7.71-3.02,15.43-4.62,23.63,2.62-.59,4.92-.97,7.11-1.68.77-.25,1.67-1.21,1.86-2,.91-3.79,1.54-7.64,2.41-11.45.15-.67.94-1.68,1.46-1.7,4.04-.14,8.09-.08,12.36-.08-1,5.4-1.94,10.49-2.96,16.02ZM534.22,102.34c.42-3.42.18-3.72-2.77-3.73-3.01,0-6.03-.12-9.04.03-2.47.12-3.63-1.17-3.52-3.3.16-3.14.67-6.27,1.25-9.37.09-.5,1.27-1.12,1.96-1.14,3.33-.12,6.67-.06,10.01-.06q3.86,0,4.14-4.33h-15.06c.69-3.51,1.53-6.65,1.88-9.85.27-2.48,1.36-2.97,3.62-2.88,4.78.17,9.56.05,14.3.05.42-3.46.28-3.65-2.57-3.65-6.59,0-13.19.05-19.78-.04-1.82-.02-2.68.33-3.04,2.38-1.51,8.48-3.36,16.9-4.87,25.38-.34,1.93-.11,4.08.38,6,.55,2.19,2.04,4.32,4.4,4.42,6.24.27,12.5.09,18.71.09ZM445.65,72.07c3.92.84,4.5-1.72,4.88-4.13h7.03c-.84,4.34-1.64,8.48-2.44,12.63-.06.32-.17.63-.23.95-.71,4.32-1.8,8.63-2.01,12.97-.24,4.98,4.33,9.25,7.85,8.78-.06-2.61-.41-5.16-.1-7.64.49-3.94,1.4-7.84,2.16-11.75,1.05-5.33,2.13-10.65,3.22-16.13,3.1,0,6.02-.05,8.94.02,1.5.04,1.74-.72,1.75-1.96,0-1.26-.47-1.72-1.73-1.72-8.79.03-17.59,0-26.38.07-.57,0-1.5.7-1.64,1.23-.57,2.18-.89,4.42-1.31,6.67ZM384.81,102.34c-.12-2.98-.69-5.75-.26-8.35,1.45-8.7,3.26-17.33,5-26.37h4.45c-.16-1.34-.29-2.35-.41-3.33h-13.33c.01,2.94.42,5.77-.03,8.45-1.44,8.54-3.19,17.03-4.87,25.75-1.14.08-2.65.18-4.97.34.77,1.45,1.27,3.35,1.88,3.38,4.34.26,8.71.14,12.53.14Z"/>
    <g>
      <path class="st0" d="M1076.61,204.67c-4.87,5.87-10.18,10.47-17.85,10.99-7.77.53-13.74-2.57-17.61-9.47-.4.28-.63.37-.76.54-8.73,11.49-26.04,10.51-34.96,5.32-6.55-3.81-9.48-9.96-8.17-18.59,1.29-8.52,2.8-17.02,4.6-25.44,2.3-10.76,10-16.47,19.89-19.46,8.43-2.55,16.87-2.56,24.87,1.87.27.15.59.23,1.15.44,2.28-13.06,4.53-25.98,6.86-39.3,4.97,2.44,8.73,5.69,11.22,10.32,3.18,5.93,2.93,12.23,1.82,18.59-2.95,16.91-6.01,33.79-8.85,50.72-.53,3.16-.54,6.5-.21,9.7.44,4.17,3.24,5.93,7.27,4.96,1.64-.4,3.27-1.04,4.74-1.85,2.92-1.63,4.33-3.73,4.8-7.57,1.29-10.63,3.38-21.18,5.71-31.65,1.28-5.76,5.08-10.3,10.36-13.01,3.5-1.79,7.35-3.19,11.2-3.92,8.07-1.53,16.22-1.47,24.15,1.06,12,3.82,15.21,16.4,6.64,25.76-3.32,3.63-7.43,6.04-11.9,7.91-7.57,3.17-15.52,4.85-23.62,5.81-2.4.28-3.68,1.02-3.76,3.58-.04,1.53-.49,3.05-.75,4.57-1.21,6.94,2.77,11.84,9.87,12.02,7.91.21,15.05-2.28,21.65-6.47,1.23-.78,2.42-1.61,3.91-2.61-.35,4.01-.76,7.28-4.69,9.48-10.86,6.07-22.26,8.07-34.37,5.39-5.59-1.24-10.15-4.29-13.25-9.68ZM1034.67,155.72c-8.36.39-13.06,4.22-14.59,12.42-1.67,8.94-3.23,17.9-4.76,26.87-1.16,6.79,1.68,10.58,8.5,11.56,8.02,1.16,14.39-3.39,15.91-11.32.38-1.99.84-3.97,1.19-5.97,1.41-8.08,2.93-16.14,4.14-24.24.55-3.66-1.16-6.34-4.55-7.78-1.83-.78-3.87-1.04-5.82-1.53ZM1095.4,185.16c2.08-.42,3.67-.69,5.23-1.07,10.2-2.46,16.79-8.56,18.9-19.03.76-3.78-1.08-7.64-4.2-9.43-5.38-3.09-13.69-.04-15.57,5.84-.66,2.07-.93,4.28-1.32,6.44-1,5.58-1.98,11.17-3.05,17.25Z"/>
      <path class="st0" d="M982.98,213.36c-1.11,0-1.83,0-2.54,0-13.28,0-26.55.04-39.83-.06-1.35,0-2.89-.54-4-1.32-6.18-4.32-8.52-10.78-8.19-17.86.33-7.19,1.59-14.36,2.81-21.48,3.1-18.19,6.42-36.35,9.59-54.53.26-1.49.74-2.08,2.3-2.07,17.76.04,35.51.03,53.27.04.4,0,.8.08,1.49.15.23,2.63.46,5.24.72,8.17h-40.68c-1.99,11.26-3.93,22.27-5.95,33.7h35.41c-.61,3.49-1.15,6.58-1.73,9.85-1.05,0-1.93,0-2.81,0-10.18,0-20.36.04-30.54-.04-1.63-.01-2.31.48-2.56,2.07-1.1,7.06-2.65,14.08-3.29,21.18-.3,3.41.84,7.02,1.76,10.43.61,2.29,2.46,3.34,5.07,3.3,8.8-.12,17.59.01,26.39-.09,2-.02,2.75.55,2.72,2.58-.02,1.85.34,3.71.59,5.98Z"/>
      <path class="st0" d="M1169.81,157.21c7.73-10.18,17.99-11.84,29.31-9.24,12.14,2.8,16.93,10.47,14.75,22.77-1.33,7.53-2.8,15.03-3.9,22.6-.39,2.68-.17,5.54.3,8.23.58,3.31,2.93,4.63,6.3,4.26,3.68-.41,6.61-2.27,9.13-4.76,1.79-1.77,3.45-3.71,4.89-5.76,1.01-1.44,2.01-2.25,4.09-1.59-4.73,8.96-9.55,18.07-20.09,20.93-12.05,3.27-21.31-1.79-22.38-16.83-.55-7.74,1.23-15.21,2.56-22.74.62-3.52,1.12-7.07,1.54-10.62.45-3.76-1.34-6.58-4.97-7.65-4.17-1.23-8.35-1.2-12.43.53-4.22,1.79-6.65,4.77-7.42,9.46-2.31,14.04-4.87,28.05-7.38,42.06-.12.7-.65,1.73-1.19,1.88-5.93,1.64-11.89,3.13-18.28,4.77.83-4.71,1.6-9,2.33-13.29,2.1-12.35,4.24-24.69,6.24-37.05.99-6.15.39-12.17-2.77-18.22,7.8,1.27,14.78,3.14,19.36,10.25Z"/>
    </g>
    <g>
      <path class="st0" d="M629.29,199.4c-.39,2.23-.65,4.16-1.1,6.05-.15.63-.7,1.3-1.25,1.68-11.09,7.75-23.35,9.99-36.48,7.34-5.8-1.17-10.47-4.35-13.55-9.58-15.71,14.43-24.09,14.75-35.85,1.31-3.58,4.58-8.11,7.76-13.86,8.83-8.47,1.58-16.59.76-23.74-4.5-6.2-4.55-6.96-11.11-5.88-18.02,1.26-8.03,2.62-16.06,4.34-24.01,2.54-11.77,10.98-17.64,21.91-20.44,7.95-2.03,15.83-1.69,23.22,2.45.2.11.45.12.96.24,2.26-12.98,4.52-25.9,6.84-39.23,3.8,1.86,6.81,4.21,9.23,7.31,4.16,5.34,5.34,11.54,4.27,18.02-2.62,15.89-5.53,31.73-8.27,47.6-.64,3.69-1.21,7.39-1.53,11.12-.18,2.07-.01,4.25.42,6.29.68,3.18,3.2,4.67,6.43,4.18,3.7-.56,6.69-2.44,9.27-5.04.41-.42.81-1.11.79-1.66-.27-9.15,2.37-17.87,3.96-26.74.36-2,.71-4.01,1.23-5.97,2.45-9.09,8.26-15.01,17.24-17.64,9.26-2.72,18.62-2.73,27.99-.47.32.08.62.19.93.29,11.89,3.74,15.4,15.36,7.52,25.1-4.5,5.56-10.71,8.53-17.32,10.42-6.23,1.79-12.66,2.91-19.05,4.1-2.1.39-3.42.9-3.49,3.31-.05,1.61-.55,3.2-.8,4.81-1.13,7.16,2.83,11.89,10.11,12.05,7.75.17,14.71-2.32,21.21-6.35,1.37-.85,2.69-1.77,4.3-2.83ZM534.88,155.55c-8.47.6-13.17,4.56-14.63,12.66-.4,2.24-.87,4.46-1.25,6.7-1.24,7.37-2.7,14.71-3.61,22.11-.6,4.94,1.73,7.81,6.57,9.04,1.86.47,3.87.65,5.78.51,6.74-.5,11.01-4.53,12.17-11.17.36-2.08.84-4.14,1.21-6.22,1.42-8.16,2.86-16.31,4.18-24.48.5-3.08-.98-5.51-3.62-6.86-2.1-1.08-4.52-1.55-6.8-2.29ZM595.59,185.48c3.94-1.2,7.42-1.96,10.67-3.3,7.81-3.2,12.04-9.38,13.52-17.52.72-3.99-1.62-8.04-5.25-9.52-6.38-2.59-13.77,1.38-15.07,8.11-.48,2.47-.91,4.96-1.34,7.44-.81,4.69-1.61,9.39-2.53,14.78Z"/>
      <path class="st0" d="M451.85,147.25c10.65-.65,18.09,5.17,20.34,16.08,1.18-1.81,2.07-3.54,3.3-4.99,2.56-3.03,5.04-6.22,8.04-8.78,3.87-3.31,9.42-3.49,13.2-.94.72.48,1.5,1.69,1.39,2.44-.71,4.88-1.67,9.73-2.63,15.1-3.36-3.79-7.4-3.7-11.48-3.07-4.99.78-9.14,3.17-10.7,8.13-1.83,5.79-3.13,11.76-4.36,17.71-1.36,6.61-2.35,13.29-3.57,19.93-.13.7-.64,1.73-1.17,1.88-5.93,1.64-11.9,3.14-18.27,4.78.74-4.34,1.42-8.3,2.09-12.26-.15-.09-.3-.18-.45-.27-.76.95-1.51,1.92-2.29,2.85-3.98,4.69-8.53,8.56-14.87,9.54-8.08,1.25-14.61-1.17-19.03-8.34-.13-.2-.29-.39-.45-.57-.05-.06-.14-.08-.37-.2-1.19,1.2-2.36,2.52-3.68,3.66-8.79,7.57-25.34,7.78-34.34.45-4.6-3.74-6.67-8.69-5.84-14.48,1.35-9.41,2.69-18.86,4.75-28.13,2.51-11.31,10.95-16.84,21.46-19.69,2.56-.7,5.29-.97,7.96-1.06,8.15-.27,12.73,2.41,16.57,9.42,7.7-8.68,15.26-8.37,24.45-9.34.04.13.17.33.12.38-6.44,7.71-9.15,16.93-10.7,26.6-1.12,6.98-2.26,13.97-3.18,20.98-.28,2.13-.13,4.4.26,6.53.62,3.43,3.25,5.01,6.7,4.4,6.73-1.19,13.95-8.2,15.13-14.92,1.56-8.89,3.09-17.79,4.38-26.72.85-5.9.17-11.69-2.74-17.11ZM404.28,155.7c-7.14.39-12.79,3.73-13.93,9.34-2.13,10.52-3.97,21.1-5.58,31.72-.77,5.09,1.73,8.19,6.76,9.38,1.72.41,3.56.57,5.32.46,6.69-.41,11.18-4.46,12.41-10.99.62-3.28,1.29-6.54,1.89-9.83,1.17-6.48,2.36-12.96,3.43-19.46.72-4.37-.71-7.34-4.49-9.03-1.81-.81-3.86-1.08-5.81-1.59Z"/>
      <path class="st0" d="M339.03,169.72c-2.9,0-5.41-.11-7.91.04-1.85.11-2.44-.62-2.45-2.37-.02-1.94-.27-3.89-.43-6.01h30.49c-1.19,6.99-2.14,13.99-3.64,20.86-1.08,4.96-2.18,10.15-4.54,14.56-6.77,12.67-18.23,18.08-32.16,18.59-4.03.15-8.19-.1-12.11-.96-13.4-2.96-20.44-12.84-18.42-26.39,2.26-15.2,4.8-30.37,7.82-45.43,3.15-15.7,16.05-26.57,32.13-28.41,11.09-1.27,21.37.36,30.71,6.79,1.59,1.09,2.13,2.17,1.62,4.03-.51,1.87-.76,3.82-1.14,5.73-.03.15-.18.27-.39.58-.73-.47-1.46-.95-2.2-1.42-5.86-3.73-12.14-6.19-19.16-6.56-11.75-.62-21.2,6.55-23.3,18.12-3,16.48-5.81,32.99-8.62,49.51-.32,1.9-.34,3.93-.06,5.83.87,5.94,4.56,8.89,11.28,9.3,9.42.58,16.1-4.1,18.24-13.41,1.71-7.43,2.81-15.01,4.26-22.99Z"/>
      <path class="st0" d="M734.87,193.68c-2.93,5.97-6.27,11.42-11.07,15.85-5.6,5.17-12.13,7.1-19.61,5.41-5.99-1.35-9.23-5.46-10.75-11.12-1.95-7.27-1.03-14.53.23-21.78.98-5.6,2.09-11.2,2.73-16.85.61-5.39-1.46-7.91-6.76-8.86-3.92-.7-7.76-.4-11.42,1.44-3.71,1.86-5.77,4.67-6.46,8.83-2.35,14.03-4.87,28.04-7.41,42.04-.15.84-.98,2.01-1.72,2.22-5.7,1.62-11.45,3.05-17.48,4.61,0-.81-.09-1.42.01-2,2.49-14.09,5.08-28.17,7.49-42.27,1.15-6.74,2.15-13.55-.27-20.27-.44-1.21-.95-2.4-1.56-3.91,7.69,1.17,14.65,3.12,19.23,10.19,3.16-4.2,6.89-7.35,11.79-8.86,7.62-2.33,15.15-1.94,22.41,1.26,8.56,3.78,11.65,10.49,9.87,20.71-1.3,7.45-2.78,14.87-3.85,22.35-.42,2.92-.26,6.03.25,8.94.6,3.38,2.91,4.62,6.3,4.21,4.22-.51,7.36-2.91,10.18-5.81,1.41-1.45,2.73-3.04,3.82-4.75.97-1.52,2.07-2.19,4.05-1.59Z"/>
    </g>
    <g>
      <path class="st0" d="M846.48,157.62h-9.75c-.37-2.81-.71-5.44-1.11-8.53,3.52,0,6.82-.11,10.1.04,1.78.08,2.41-.57,2.68-2.24,1.59-9.63,3.24-19.25,4.95-28.85.14-.81.78-1.99,1.42-2.17,5.78-1.63,11.6-3.07,17.85-4.68-2.16,12.69-4.27,25.07-6.46,37.91h9.92q6.76,0,7.36,6.68c.04.48,0,.97,0,1.72h-15.67c.12.5.1.79.23.91,8.9,8.16,13.21,18.68,14.87,30.29,2.22,15.54-.43,30.33-8.25,44.04-3.65,6.4-8.49,11.62-16.03,13.36-11.7,2.7-20.44-3.47-22.41-15.6-1.21-7.45-.14-14.75,1.19-22.06,3.04-16.8,6.02-33.61,9.09-50.81ZM864.28,160.09c-.19.86-.26,1.17-.32,1.48-3.07,17.13-6.26,34.24-9.13,51.4-.96,5.73-1.55,11.6-1.53,17.41.01,4.67,4.03,6.86,8.12,4.53,2.55-1.45,5.07-3.8,6.42-6.37,2.43-4.64,4.35-9.63,5.82-14.67,4.01-13.73,4.06-27.45-1.22-40.94-1.81-4.64-4.37-8.83-8.16-12.84Z"/>
      <path class="st0" d="M788.44,216.07c-4.86-.86-9.85-1.27-14.55-2.67-8.36-2.49-12.24-8.25-11.53-16.96.48-5.9,1.69-11.74,2.67-17.59.56-3.37,1.31-6.71,1.98-10.06,2.18-10.91,8.97-17.46,19.52-20.16,8.39-2.14,16.91-2.37,25.42-.63,11.08,2.26,16.32,9.53,14.65,20.7-1.27,8.52-2.85,17-4.49,25.46-1.85,9.51-7.94,15.4-16.77,18.72-5.41,2.03-11.03,2.74-16.79,2.56-.03.21-.07.41-.1.62ZM789.93,207.79c7.71-.12,11.92-3.05,13.02-9.22,2.07-11.69,4.14-23.38,6.19-35.07.74-4.25-1.33-7.65-5.6-8.18-3.24-.4-6.66-.26-9.87.34-4.23.79-6.71,3.74-7.48,8.02-2.07,11.61-4.17,23.21-6.2,34.82-.84,4.81,1.07,7.64,5.86,8.74,1.34.31,2.73.38,4.09.56Z"/>
    </g>
  </g>
</svg>