<?xml version="1.0" encoding="UTF-8"?>
<svg id="Layer_1" xmlns="http://www.w3.org/2000/svg" version="1.1" xmlns:xlink="http://www.w3.org/1999/xlink" viewBox="0 0 554.64 214.73">
  <!-- Generator: Adobe Illustrator 30.2.1, SVG Export Plug-In . SVG Version: 2.1.1 Build 1)  -->
  <defs>
    <style>
      .st0 {
        fill: url(#linear-gradient2);
      }

      .st1 {
        fill: #dfac53;
      }

      .st2 {
        fill: #607684;
      }

      .st3 {
        fill: none;
        stroke: #000;
        stroke-miterlimit: 10;
        stroke-width: .44px;
      }

      .st4 {
        fill: #e2b772;
      }

      .st5 {
        fill: #e0ac4c;
      }

      .st6 {
        fill: #304a59;
      }

      .st7 {
        fill: #bb862c;
      }

      .st8 {
        fill: #e5be7b;
      }

      .st9 {
        fill: #e3ba78;
      }

      .st10 {
        fill: url(#linear-gradient1);
      }

      .st11 {
        fill: #a1702a;
      }

      .st12 {
        fill: #506b7c;
      }

      .st13 {
        fill: #805622;
      }

      .st14 {
        fill: #788b99;
      }

      .st15 {
        fill: #213c4b;
      }

      .st16 {
        fill: #2f4a59;
      }

      .st17 {
        fill: url(#linear-gradient4);
      }

      .st18 {
        fill: #617986;
      }

      .st19 {
        fill: url(#linear-gradient5);
      }

      .st20 {
        fill: url(#linear-gradient3);
      }

      .st21 {
        fill: #5f7d8f;
      }

      .st22 {
        fill: #e6a514;
      }

      .st23 {
        fill: #c58d2c;
      }

      .st24 {
        fill: #7a5020;
      }

      .st25 {
        fill: #c9921f;
      }

      .st26 {
        fill: #a06e10;
      }

      .st27 {
        fill: url(#linear-gradient);
      }

      .st28 {
        fill: #db9f34;
      }

      .st29 {
        fill: #475e6e;
      }
    </style>
    <linearGradient id="linear-gradient" x1="254.51" y1="99.73" x2="254.51" y2="60.52" gradientUnits="userSpaceOnUse">
      <stop offset=".08" stop-color="#7e5424"/>
      <stop offset=".74" stop-color="#dfac53"/>
    </linearGradient>
    <linearGradient id="linear-gradient1" x1="257.5" y1="95.04" x2="257.5" y2="60.52" gradientUnits="userSpaceOnUse">
      <stop offset="0" stop-color="#e2b873"/>
      <stop offset="1" stop-color="#a1702a"/>
    </linearGradient>
    <linearGradient id="linear-gradient2" x1="265.29" y1="80.12" x2="286.83" y2="80.12" gradientUnits="userSpaceOnUse">
      <stop offset="0" stop-color="#7a5120"/>
      <stop offset="1" stop-color="#a1702a"/>
    </linearGradient>
    <linearGradient id="linear-gradient3" x1="273.08" y1="95.04" x2="273.08" y2="60.52" gradientUnits="userSpaceOnUse">
      <stop offset=".05" stop-color="#ddb272"/>
      <stop offset="1" stop-color="#a1702a"/>
    </linearGradient>
    <linearGradient id="linear-gradient4" x1="531.51" y1="99.5" x2="531.51" y2="59.1" gradientUnits="userSpaceOnUse">
      <stop offset=".05" stop-color="#805622"/>
      <stop offset="1" stop-color="#e2b772"/>
    </linearGradient>
    <linearGradient id="linear-gradient5" x1="532.49" y1="94.47" x2="532.49" y2="64.12" gradientUnits="userSpaceOnUse">
      <stop offset=".05" stop-color="#e2b772"/>
      <stop offset="1" stop-color="#805622"/>
    </linearGradient>
  </defs>
  <g>
    <polygon class="st2" points="9 148.8 9 65.92 0 60.67 0 154.05 9 148.8"/>
    <polygon class="st6" points="107.24 204.38 9 148.8 0 154.05 107.24 214.73 107.24 204.38"/>
    <polygon class="st15" points="205.47 148.8 107.24 204.38 107.24 214.73 214.48 154.05 205.47 148.8"/>
    <polygon class="st16" points="205.47 65.93 205.47 148.8 214.48 154.05 214.48 60.67 205.47 65.93"/>
    <polygon class="st14" points="107.24 10.34 205.47 65.93 214.48 60.67 107.24 0 107.24 10.34"/>
    <polygon class="st21" points="9 65.92 107.24 10.34 107.24 0 0 60.67 9 65.92"/>
    <polygon class="st15" points="107.24 19.73 17.17 70.69 9 65.92 107.24 10.34 107.24 19.73"/>
    <polygon class="st6" points="107.24 10.34 205.47 65.93 197.31 70.69 107.24 19.73 107.24 10.34"/>
    <polygon class="st2" points="205.47 65.93 205.47 148.8 197.31 144.04 197.31 70.69 205.47 65.93"/>
    <polygon class="st12" points="205.47 148.8 107.24 204.38 107.24 194.99 197.31 144.04 205.47 148.8"/>
    <polygon class="st18" points="107.24 204.38 9 148.8 17.17 144.04 107.24 194.99 107.24 204.38"/>
    <polygon class="st16" points="9 148.8 9 65.92 17.17 70.69 17.17 144.04 9 148.8"/>
    <polygon class="st15" points="107.24 181.84 129.37 169.32 117.92 163.53 107.24 181.84"/>
    <path class="st3" d="M107.24,181.84"/>
    <polygon class="st14" points="117.92 51.2 175.18 83.59 185.86 77.37 107.24 32.88 117.92 51.2"/>
    <polygon class="st15" points="163.73 149.88 185.86 137.36 175.18 131.13 163.73 149.88"/>
    <polygon class="st15" points="175.2 111.67 117.95 111.67 129.37 122.35 163.73 122.35 175.2 111.67"/>
    <polygon class="st15" points="163.73 90.27 129.37 70.84 117.92 51.2 175.18 83.59 163.73 90.27"/>
    <polygon class="st14" points="129.37 100.05 163.73 100.05 175.2 111.67 117.92 111.67 129.37 100.05"/>
    <polygon class="st2" points="175.18 83.59 175.2 111.67 163.73 100.05 163.73 90.27 175.18 83.59"/>
    <polygon class="st16" points="117.92 51.2 129.37 70.84 129.37 100.05 117.95 111.67 117.92 51.2"/>
    <polygon class="st2" points="175.2 111.67 163.73 122.35 163.73 149.88 175.18 131.13 175.2 111.67"/>
    <polygon class="st16" points="117.95 111.67 129.37 122.35 129.37 169.32 117.92 163.53 117.95 111.67"/>
    <polygon class="st16" points="185.86 77.37 175.18 83.59 175.18 131.13 185.86 137.36 185.86 77.37"/>
    <polygon class="st29" points="107.24 32.88 117.92 51.2 117.92 163.53 107.24 181.84 107.24 32.88"/>
    <polygon class="st8" points="50.75 64.84 28.62 77.36 39.3 83.59 50.75 64.84"/>
    <polygon class="st8" points="85.11 143.89 50.75 124.46 39.3 131.13 96.56 163.53 85.11 143.89"/>
    <polygon class="st8" points="107.24 32.88 85.11 45.4 96.56 51.2 107.24 32.88"/>
    <polygon class="st5" points="39.3 131.13 39.3 83.59 28.62 77.36 28.62 137.36 39.3 131.13"/>
    <polygon class="st5" points="85.11 143.89 85.11 45.4 96.56 51.2 96.56 163.53 85.11 143.89"/>
    <polygon class="st26" points="50.75 64.84 50.75 124.46 39.3 131.13 39.3 83.59 50.75 64.84"/>
    <polygon class="st26" points="28.62 137.36 39.3 131.13 96.56 163.53 107.24 181.84 28.62 137.36"/>
    <polygon class="st25" points="107.24 181.84 107.24 32.88 96.56 51.2 96.56 163.53 107.24 181.84"/>
  </g>
  <g>
    <g>
      <g>
        <path class="st4" d="M280.87,64.12s-6.02-3.38-6.25-3.61c-.23-.23-.83-.4-1.81-.5v-.92h15.82v.92c-.97.1-1.58.27-1.8.5-.23.23-5.97,3.61-5.97,3.61Z"/>
        <path class="st4" d="M249.7,64.12s-5.74-3.38-5.97-3.61c-.23-.23-.83-.4-1.8-.5v-.92h15.82v.92c-.97.1-1.57.27-1.81.5-.23.23-6.25,3.61-6.25,3.61Z"/>
        <path class="st27" d="M265.29,95.04c-2.78,0-6.61-.06-10.59-2.68-3.22-2.12-4.99-4.63-4.99-10.38v-17.86l-5.97-3.61c.23.23.35.53.35.88v20.59c0,3.38.55,6.22,1.65,8.53,1.1,2.3,2.61,4.14,4.53,5.53,1.92,1.38,4.17,2.34,6.76,2.88,2.59.53,5.34.8,8.26.8v-4.68Z"/>
        <path class="st10" d="M265.29,95.04c-2.78,0-6.61-.06-10.59-2.68-3.22-2.12-4.99-4.63-4.99-10.38v-17.86l6.25-3.61c-.23.23-.35.53-.35.88v20.59c0,2.97.85,5.1,2.53,6.37,1.69,1.28,4.07,1.92,7.15,1.92v4.76Z"/>
        <path class="st0" d="M265.29,95.04c2.78,0,6.61-.06,10.59-2.68,3.21-2.12,4.99-4.63,4.99-10.38v-17.86l5.97-3.61c-.23.23-.35.53-.35.88v20.59c0,3.38-.55,6.22-1.65,8.53-1.1,2.3-2.61,4.14-4.53,5.53-1.92,1.38-4.18,2.34-6.76,2.88-2.59.53-5.34.8-8.26.8v-4.68Z"/>
        <path class="st20" d="M265.29,90.28c3.07,0,5.45-.64,7.14-1.92,1.69-1.28,2.53-3.41,2.53-6.37v-20.59c0-.36-.12-.65-.35-.88l6.25,3.61v17.86c0,5.75-1.78,8.27-4.99,10.38-3.98,2.62-7.8,2.68-10.59,2.68v-4.76Z"/>
      </g>
      <g>
        <path class="st13" d="M312.99,94.47l6.07,3.61c.29.3.77.46,1.44.49v.92h-15.34v-.92c1.06-.11,1.72-.27,1.97-.5l5.86-3.61Z"/>
        <path class="st13" d="M350.73,98.08c.25.23.91.39,1.97.5v.92h-15.93v-.92c.95-.05,1.58-.17,1.88-.35.13-.07.24-.16.32-.25l5.9-3.46,5.86,3.57Z"/>
        <path class="st4" d="M344.86,64.12l-6.1-3.65c-.29-.28-.76-.43-1.41-.46v-.92h15.34v.92c-1.06.1-1.72.27-1.97.5l-5.86,3.61Z"/>
        <path class="st4" d="M312.99,64.12l-5.86-3.61c-.25-.23-.91-.4-1.97-.5v-.92h15.93v.92c-.78,0-1.3.08-1.55.23l-6.54,3.87Z"/>
        <path class="st1" d="M307.13,98.08c.25-.23.38-.53.38-.89v-35.79c0-.36-.12-.65-.38-.88l5.86,3.61v30.35l-5.86,3.61Z"/>
        <path class="st7" d="M339.04,97.49c-.08-.2-.29-.47-1.01-1.29-.73-.82-19.29-18.85-19.29-18.85l-5.75-13.23,31.87,30.39-5.9,3.46s.15-.29.07-.49Z"/>
        <path class="st11" d="M350.73,98.08c-.25-.23-.38-.53-.38-.89v-35.79c0-.36.12-.65.38-.88l-5.86,3.61v30.39l5.86,3.57Z"/>
        <path class="st1" d="M339.12,81.14v-19.74c0-.64-.36-.92-.36-.92l6.1,3.65v30.39l-5.75-13.38Z"/>
        <path class="st22" d="M344.86,94.51l-31.87-30.39,6.54-3.87s-.37.21-.38.62c0,.19.08.34.25.57.17.23.53.63,1.09,1.19.56.56,16.69,16.55,18.61,18.5h0l5.75,13.38Z"/>
        <path class="st11" d="M312.99,94.47v-30.35l5.75,13.23v19.84c0,.62.32.89.32.89l-6.07-3.61Z"/>
      </g>
      <g>
        <path class="st13" d="M383.69,98.08c.23.23.83.39,1.8.5v.92h-15.82v-.92c.97-.11,1.58-.27,1.81-.5l5.97-3.61,6.25,3.61Z"/>
        <path class="st4" d="M377.44,64.12l-5.97-3.61c-.23-.23-.84-.4-1.81-.5v-.92h15.82v.92c-.97.1-1.57.27-1.8.5l-6.25,3.61Z"/>
        <path class="st1" d="M371.48,98.08c.23-.23.34-.53.34-.89v-35.79c0-.36-.12-.65-.34-.88l5.97,3.61v30.35l-5.97,3.61Z"/>
        <path class="st11" d="M377.44,94.47v-30.35l6.25-3.61c-.23.23-.35.53-.35.88v35.79c0,.36.12.65.35.89l-6.25-3.61Z"/>
      </g>
      <g>
        <path class="st1" d="M399.86,68.89c-.21.28-.36.86-.46,1.73h-.92v-13.67h.92c.1.87.26,1.45.46,1.73l3.59,5.48-3.59,4.74Z"/>
        <path class="st13" d="M425.86,98.08c.23.23.83.39,1.8.5v.92h-15.82v-.92c.97-.11,1.57-.27,1.81-.5l5.97-3.61,6.25,3.61Z"/>
        <path class="st11" d="M435.78,64.15l3.87-5.48c.2-.28.35-.85.46-1.73h.92v13.67h-.92c-.11-.87-.26-1.45-.46-1.73l-3.87-4.74Z"/>
        <path class="st13" d="M413.99,68.47h-13.21c-.41,0-.72.14-.92.42l3.59-4.74,16.16-.03-5.62,4.34Z"/>
        <path class="st1" d="M413.65,98.08c.23-.23.35-.53.35-.89v-28.73l5.62-4.34v30.35l-5.97,3.61Z"/>
        <path class="st11" d="M425.51,68.47v28.73c0,.36.12.65.35.89l-6.25-3.61v-30.35l5.9,4.34"/>
        <path class="st13" d="M439.65,68.89c-.21-.28-.51-.42-.92-.42h-13.21l-5.9-4.34,16.16.03,3.87,4.74Z"/>
        <path class="st4" d="M439.65,58.67c-.21.28-.51.42-.92.42h-37.95c-.41,0-.72-.14-.92-.42l3.59,5.48h32.33l3.87-5.48Z"/>
      </g>
      <g>
        <path class="st4" d="M492.57,58.67l-3.95,5.45h-27.53l-5.97-3.61c-.23-.23-.83-.4-1.8-.5v-.92h38.33c.41,0,.72-.14.92-.42"/>
        <path class="st13" d="M492.57,99.73c-.2-.15-.51-.23-.92-.23h-38.33v-.92c.97-.11,1.57-.27,1.8-.5l5.97-3.61h27.53l3.95,5.25"/>
        <path class="st11" d="M479.28,79.06l3.65-5.03c.33-.33.55-.76.66-1.27h.92v11.98h-.92c-.11-.51-.32-.93-.66-1.27l-3.65-4.42Z"/>
        <path class="st11" d="M488.62,64.12l3.95-5.45c.21-.28.36-.85.46-1.73h.93v13.36h-.93c-.1-.87-.26-1.45-.46-1.73l-3.95-4.46Z"/>
        <path class="st11" d="M488.62,94.47l3.95-4.77c.21-.28.36-.91.46-1.89h.93v13.14h-.93c-.1-.67-.26-1.08-.46-1.23l-3.95-5.25Z"/>
        <path class="st1" d="M455.13,98.08c.23-.23.34-.53.34-.89v-35.79c0-.36-.11-.65-.34-.88l5.97,3.61v30.35l-5.97,3.61Z"/>
        <path class="st4" d="M466.99,90.13h24.66c.41,0,.72-.14.92-.42l-3.95,4.77h-27.53l5.9-4.34Z"/>
        <path class="st13" d="M461.09,79.06h18.19l3.65,4.42c-.33-.33-.88-.5-1.65-.5h-14.29l-5.9-3.92Z"/>
        <path class="st4" d="M466.99,74.54h14.29c.77,0,1.32-.17,1.65-.5l-3.65,5.03h-18.19l5.9-4.53Z"/>
        <path class="st13" d="M492.57,68.58c-.2-.28-.51-.42-.92-.42h-24.66l-5.9-4.03h27.53l3.95,4.46Z"/>
        <polygon class="st11" points="461.09 64.12 461.09 79.06 466.99 74.54 466.99 68.16 461.09 64.12"/>
        <polygon class="st11" points="461.09 79.06 466.99 82.98 466.99 90.13 461.09 94.47 461.09 79.06"/>
      </g>
      <g>
        <path class="st1" d="M510.2,98.08c.23-.23.35-.53.35-.89v-35.79c0-.36-.12-.65-.35-.88l5.97,3.61v30.35l-5.97,3.61Z"/>
        <polygon class="st11" points="516.17 94.47 516.17 64.12 522.07 68.16 522.07 90.43 516.17 94.47"/>
        <path class="st17" d="M516.17,94.47h20.15c6.42,0,12.5-6.85,12.5-15.22s-6.08-15.13-12.5-15.13h-20.15l-5.97-3.61c-.23-.23-.83-.4-1.8-.5v-.92h25.5c3.53,0,6.61.51,9.22,1.53,2.61,1.03,4.76,2.45,6.45,4.27,1.69,1.82,2.96,3.95,3.8,6.41.85,2.46,1.27,5.12,1.27,7.99,0,2.61-.45,5.13-1.34,7.56-.9,2.43-2.25,4.58-4.07,6.45-1.82,1.87-4.07,3.37-6.76,4.49-2.69,1.13-5.82,1.69-9.41,1.69h-24.66v-.92c.97-.11,1.58-.27,1.8-.5l5.97-3.61Z"/>
        <path class="st19" d="M522.07,90.43h9.75c4.04,0,6.96-1.04,8.75-3.11,1.8-2.07,2.69-4.75,2.69-8.02s-.9-5.95-2.69-8.03c-1.79-2.08-4.71-3.11-8.75-3.11h-9.75l-5.9-4.03h20.15c6.42,0,12.5,6.77,12.5,15.13s-6.08,15.22-12.5,15.22h-20.15l5.9-4.04Z"/>
      </g>
    </g>
    <g>
      <g>
        <path class="st11" d="M254.24,154.77l-4.74-3.79,2.58-6.77,4.54,3.04c-.51,1.39-.92,2.51-1.23,3.38-.31.87-.55,1.56-.73,2.07-.18.51-.31.88-.38,1.11-.08.23-.12.4-.12.5,0,.26.09.45.27.58"/>
        <polygon class="st4" points="279.4 144.21 252.07 144.21 258.53 141.11 272.82 141.11 279.4 144.21"/>
        <path class="st13" d="M249.49,150.99l4.92,3.91c.18.13.55.19,1.11.19v.93h-13.6v-.93c.56-.1.97-.27,1.23-.5l6.33-3.61Z"/>
        <path class="st13" d="M289.98,154.63c.28.31.65.46,1.11.46v.93h-15.13v-.93c.61-.03,1.02-.16,1.25-.4l4.91-3.71,7.86,3.64Z"/>
        <polygon class="st13" points="269.31 119.28 265.36 122.83 261.62 119.28 269.31 119.28"/>
        <path class="st4" d="M261.62,119.28l-4.11-2.27c-.08-.11-.22-.19-.4-.25-.33-.1-.68-.18-1.04-.23v-.92h20.05v.92c-.41.05-.74.13-1,.23-.13.05-.22.14-.29.27l-5.52,2.25"/>
        <path class="st23" d="M279.4,144.21l2.73,6.77-4.91,3.71c.14-.14.21-.31.21-.52,0-.05-.13-.4-.38-1.04-.26-.64-.54-1.36-.85-2.15-.31-.79-.6-1.55-.88-2.27-.28-.71-.45-1.2-.5-1.46l4.59-3.04Z"/>
        <polygon class="st13" points="252.07 144.21 279.4 144.21 274.81 147.25 256.61 147.25 252.07 144.21"/>
        <polygon class="st23" points="269.31 119.28 265.36 122.83 272.82 141.11 279.4 144.21 269.31 119.28"/>
        <polygon class="st11" points="265.36 122.83 258.53 141.11 252.07 144.21 261.62 119.28 265.36 122.83"/>
        <path class="st1" d="M243.17,154.59c.26-.23.51-.65.77-1.27.1-.26.36-.95.77-2.07.41-1.12.95-2.55,1.61-4.26.67-1.71,1.41-3.62,2.23-5.72.82-2.1,1.64-4.24,2.46-6.41.82-2.17,1.62-4.3,2.42-6.37.79-2.07,1.5-3.93,2.11-5.57.61-1.64,1.11-2.97,1.5-3.99.38-1.03.58-1.56.58-1.62,0-.11-.03-.21-.1-.29l4.11,2.27-12.12,31.71-6.33,3.61Z"/>
        <path class="st11" d="M282.13,150.99l-12.82-31.71,5.52-2.25c-.06.13-.09.29-.09.5,0,.11.24.77.73,2,.48,1.23,1.12,2.83,1.88,4.8.77,1.97,1.65,4.2,2.65,6.68,1,2.48,2.04,5.02,3.11,7.6,1.08,2.59,2.11,5.11,3.11,7.56,1,2.46,1.91,4.66,2.73,6.61.41.92.75,1.54,1.04,1.84l-7.86-3.64Z"/>
      </g>
      <g>
        <path class="st4" d="M457.93,115.19l-3.95,5.45h-27.53l-5.97-3.61c-.23-.23-.83-.4-1.8-.5v-.92h38.33c.41,0,.72-.14.92-.42"/>
        <path class="st13" d="M457.93,156.25c-.21-.16-.51-.23-.92-.23h-38.33v-.93c.97-.1,1.57-.27,1.8-.5l5.97-3.61h27.53l3.95,5.26"/>
        <path class="st11" d="M444.64,135.58l3.65-5.02c.33-.33.55-.76.65-1.27h.92v11.98h-.92c-.11-.51-.32-.93-.65-1.26l-3.65-4.42Z"/>
        <path class="st11" d="M453.98,120.64l3.95-5.45c.2-.28.36-.86.46-1.73h.93v13.37h-.93c-.1-.87-.26-1.45-.46-1.73l-3.95-4.46Z"/>
        <path class="st11" d="M453.98,150.99l3.95-4.77c.2-.28.36-.91.46-1.88h.93v13.14h-.93c-.1-.67-.26-1.08-.46-1.23l-3.95-5.26Z"/>
        <path class="st1" d="M420.48,154.59c.23-.23.34-.53.34-.88v-35.79c0-.36-.11-.66-.34-.89l5.97,3.61v30.35l-5.97,3.61Z"/>
        <path class="st4" d="M432.35,146.64h24.65c.41,0,.72-.14.92-.42l-3.95,4.77h-27.53l5.9-4.35Z"/>
        <path class="st13" d="M426.45,135.58h18.19l3.65,4.42c-.33-.33-.88-.5-1.65-.5h-14.29l-5.9-3.92Z"/>
        <path class="st4" d="M432.35,131.05h14.29c.77,0,1.32-.17,1.65-.5l-3.65,5.02h-18.19l5.9-4.53Z"/>
        <path class="st13" d="M457.93,125.1c-.21-.28-.51-.42-.92-.42h-24.65l-5.9-4.04h27.53l3.95,4.46Z"/>
        <polygon class="st11" points="426.45 120.64 426.45 135.58 432.35 131.05 432.35 124.67 426.45 120.64"/>
        <polygon class="st11" points="426.45 135.58 432.35 139.5 432.35 146.64 426.45 150.99 426.45 135.58"/>
      </g>
      <g>
        <path class="st1" d="M302.64,154.64c.25-.21.53-.5.83-.86l15.36-18.28,7.02-.1-12.79,15.58-10.42,3.66"/>
        <path class="st23" d="M333.42,154.71c0-.21-.73-1.38-.73-1.38l-6.87-9.14.03-8.78,12,15.58-4.43,3.72"/>
        <path class="st28" d="M319.36,116.76c-.31.1-.47.36-.47.77,0,.11.33.58,1,1.42.66.84,6.07,7.33,6.07,7.33l-.12,9.22-11.74-14.87,5.26-3.88"/>
        <path class="st13" d="M317.59,154.24c0,.41.23.65.69.73.46.08.85.12,1.15.12v.93h-17.74v-.93c.27,0,.58-.15.94-.45l10.42-3.66,4.54,3.26Z"/>
        <path class="st13" d="M337.85,150.99l10.7,3.72c.15.2.36.32.61.34.26.03.51.04.77.04v.93h-17.98v-.93c.97,0,1.46-.13,1.46-.38l4.43-3.72Z"/>
        <path class="st4" d="M337.76,120.64l-5.3-3.91c-.38-.13-.73-.19-1.04-.19v-.92h17.59v.92c-.41.03-.77.12-1.09.27l-10.16,3.84Z"/>
        <path class="st4" d="M303.58,116.72c-.28-.13-.55-.19-.81-.19v-.92h17.98v.92c-.61.05-1.07.13-1.38.23l-5.26,3.88-10.53-3.91Z"/>
        <path class="st23" d="M318.83,135.51l-14.29-17.98c-.36-.41-.68-.68-.96-.8l10.53,3.91,11.74,14.77-7.02.1Z"/>
        <path class="st11" d="M325.85,135.41l11.91-14.77,10.16-3.84c-.32.15-.6.38-.83.65l-14.13,17.51-7.11.44Z"/>
        <path class="st9" d="M325.97,126.29s5.47-6.54,6.11-7.33c.64-.8.96-1.27.96-1.42,0-.41-.19-.68-.57-.8l5.3,3.91-11.91,14.77.12-9.12Z"/>
        <path class="st24" d="M325.81,144.18l-6.3,7.3s-1.03,1.24-1.39,1.73c-.36.49-.54.83-.54,1.04l-4.54-3.26,12.79-15.58-.03,8.78Z"/>
        <polyline class="st28" points="348.7 154.91 337.85 150.99 325.85 135.41 332.96 134.97 348.55 154.71"/>
      </g>
      <g>
        <path class="st4" d="M371.38,120.64l-5.97-3.61c-.23-.23-.83-.4-1.8-.5v-.92h15.82v.92c-.97.11-1.57.27-1.8.5l-6.24,3.61Z"/>
        <path class="st11" d="M400.75,150.99l3.87-4.77c.2-.28.36-.86.46-1.73h.92v13.29h-.92c-.1-.82-.26-1.32-.46-1.5l-3.87-5.29Z"/>
        <path class="st11" d="M377.28,146.64v-28.72c0-.36.11-.66.34-.89l-6.24,3.61v30.35l5.9-4.35Z"/>
        <path class="st4" d="M371.38,150.99h29.37l3.87-4.77c-.21.28-.51.42-.92.42h-26.42l-5.9,4.35Z"/>
        <path class="st13" d="M371.38,150.99h29.37l3.87,5.29c-.21-.18-.51-.26-.92-.26h-40.09v-.93c.97-.1,1.57-.27,1.8-.5l5.97-3.61Z"/>
        <path class="st1" d="M365.41,154.59c.23-.23.34-.53.34-.88v-35.79c0-.36-.11-.66-.34-.89l5.97,3.61v30.35l-5.97,3.61Z"/>
      </g>
    </g>
  </g>
</svg>